<svg width="40" height="40" viewBox="0 0 40 40" fill="none" xmlns="http://www.w3.org/2000/svg">
<path d="M39.6108 16.0829H37.9998V15.9999H19.9999V23.9999H31.3028C29.6539 28.6569 25.2229 31.9998 19.9999 31.9998C13.3729 31.9998 7.99996 26.6269 7.99996 19.9999C7.99996 13.3729 13.3729 7.99996 19.9999 7.99996C23.0589 7.99996 25.8419 9.15395 27.9609 11.0389L33.6178 5.38197C30.0459 2.05299 25.2679 0 19.9999 0C8.95496 0 0 8.95496 0 19.9999C0 31.0448 8.95496 39.9998 19.9999 39.9998C31.0448 39.9998 39.9998 31.0448 39.9998 19.9999C39.9998 18.6589 39.8618 17.3499 39.6108 16.0829Z" fill="#FFC107"/>
<path d="M2.30615 10.6909L8.87712 15.5099C10.6551 11.1079 14.9611 7.99996 20.0001 7.99996C23.059 7.99996 25.842 9.15395 27.961 11.0389L33.618 5.38197C30.046 2.05299 25.268 0 20.0001 0C12.3181 0 5.65614 4.33698 2.30615 10.6909Z" fill="#FF3D00"/>
<path d="M19.9997 40.0006C25.1657 40.0006 29.8597 38.0236 33.4087 34.8086L27.2187 29.5707C25.1433 31.149 22.6072 32.0027 19.9997 32.0006C14.7978 32.0006 10.3808 28.6837 8.71679 24.0547L2.19482 29.0797C5.50481 35.5566 12.2268 40.0006 19.9997 40.0006Z" fill="#4CAF50"/>
<path d="M39.6109 16.083H37.9999V16H20V24H31.3029C30.5142 26.2164 29.0933 28.1531 27.216 29.5709L27.219 29.5689L33.4089 34.8069C32.9709 35.2049 39.9999 29.9999 39.9999 20C39.9999 18.659 39.8619 17.35 39.6109 16.083Z" fill="#1976D2"/>
</svg>
