<svg width="815" height="608" viewBox="0 0 815 608" fill="none" xmlns="http://www.w3.org/2000/svg">
<path d="M815 533.662H0V534.07H815V533.662Z" fill="#EBEBEB"/>
<path d="M733.337 559.889H679.351V560.297H733.337V559.889Z" fill="#EBEBEB"/>
<path d="M539.889 564.322H525.724V564.73H539.889V564.322Z" fill="#EBEBEB"/>
<path d="M677.721 544.762H646.442V545.17H677.721V544.762Z" fill="#EBEBEB"/>
<path d="M155.909 547.501H85.5098V547.908H155.909V547.501Z" fill="#EBEBEB"/>
<path d="M180.751 547.501H170.433V547.908H180.751V547.501Z" fill="#EBEBEB"/>
<path d="M366.994 554.379H214.296V554.786H366.994V554.379Z" fill="#EBEBEB"/>
<path d="M386.31 460.964H71.5732C69.1076 460.96 66.7444 459.977 65.0025 458.232C63.2606 456.487 62.2822 454.122 62.2822 451.657V9.2258C62.3037 6.77432 63.2915 4.43031 65.0311 2.7029C66.7707 0.975487 69.1217 0.00419951 71.5732 0H386.31C388.778 0 391.146 0.980588 392.891 2.72605C394.637 4.4715 395.617 6.83885 395.617 9.3073V451.657C395.617 454.125 394.637 456.493 392.891 458.238C391.146 459.983 388.778 460.964 386.31 460.964V460.964ZM71.5732 0.326001C69.2157 0.330319 66.9562 1.26988 65.2907 2.93844C63.6251 4.60701 62.6897 6.86825 62.6897 9.2258V451.657C62.6897 454.014 63.6251 456.275 65.2907 457.944C66.9562 459.613 69.2157 460.552 71.5732 460.556H386.31C388.669 460.552 390.93 459.613 392.598 457.945C394.266 456.277 395.205 454.016 395.21 451.657V9.2258C395.205 6.86675 394.266 4.60555 392.598 2.93745C390.93 1.26935 388.669 0.33031 386.31 0.326001H71.5732Z" fill="#EBEBEB"/>
<path d="M738.895 460.964H424.142C421.675 460.96 419.31 459.978 417.566 458.233C415.821 456.489 414.839 454.124 414.835 451.657V9.2258C414.861 6.77283 415.852 4.42884 417.594 2.70188C419.337 0.974917 421.689 0.00415371 424.142 0H738.895C741.344 0.00848333 743.691 0.981666 745.427 2.70862C747.163 4.43557 748.149 6.77714 748.17 9.2258V451.657C748.17 454.12 747.194 456.482 745.455 458.226C743.717 459.971 741.358 460.955 738.895 460.964V460.964ZM424.142 0.326001C421.783 0.33031 419.522 1.26935 417.854 2.93745C416.186 4.60555 415.247 6.86675 415.242 9.2258V451.657C415.247 454.016 416.186 456.277 417.854 457.945C419.522 459.613 421.783 460.552 424.142 460.556H738.895C741.254 460.552 743.515 459.613 745.184 457.945C746.852 456.277 747.791 454.016 747.795 451.657V9.2258C747.791 6.86675 746.852 4.60555 745.184 2.93745C743.515 1.26935 741.254 0.33031 738.895 0.326001H424.142Z" fill="#EBEBEB"/>
<path d="M395.014 193.774H163.587V533.091H395.014V193.774Z" fill="#FFC000"/>
<path d="M386.832 204.451H171.753V267.125H386.832V204.451Z" fill="#E0E0E0"/>
<path d="M183.978 214.589H171.753V267.108H183.978V214.589Z" fill="#EBEBEB"/>
<path d="M243.066 214.589H230.841V267.108H243.066V214.589Z" fill="#EBEBEB"/>
<path d="M310.127 213.271L298.079 215.347L307.001 267.103L319.048 265.026L310.127 213.271Z" fill="#EBEBEB"/>
<path d="M199.121 221.517H186.896V267.124H199.121V221.517Z" fill="#EBEBEB"/>
<path d="M227.206 221.517H214.981V267.124H227.206V221.517Z" fill="#EBEBEB"/>
<path d="M298.094 221.517H285.869V267.124H298.094V221.517Z" fill="#EBEBEB"/>
<path d="M259.123 219.934L247.189 222.586L257.084 267.108L269.018 264.455L259.123 219.934Z" fill="#EBEBEB"/>
<path d="M209.683 211.981H203.571V267.108H209.683V211.981Z" fill="#EBEBEB"/>
<path d="M282.349 211.981H276.236V267.108H282.349V211.981Z" fill="#EBEBEB"/>
<path d="M171.769 339.725H386.848V277.051H171.769V339.725Z" fill="#E0E0E0"/>
<path d="M374.607 339.708H386.832V287.19H374.607V339.708Z" fill="#EBEBEB"/>
<path d="M315.535 339.708H327.76V287.19H315.535V339.708Z" fill="#EBEBEB"/>
<path d="M239.556 337.622L251.604 339.698L260.525 287.943L248.478 285.866L239.556 337.622Z" fill="#EBEBEB"/>
<path d="M359.464 339.725H371.689V294.117H359.464V339.725Z" fill="#EBEBEB"/>
<path d="M331.395 339.725H343.62V294.117H331.395V339.725Z" fill="#EBEBEB"/>
<path d="M260.507 339.725H272.732V294.117H260.507V339.725Z" fill="#EBEBEB"/>
<path d="M289.623 337.06L301.557 339.712L311.452 295.191L299.518 292.539L289.623 337.06Z" fill="#EBEBEB"/>
<path d="M348.901 339.708H355.014V284.582H348.901V339.708Z" fill="#EBEBEB"/>
<path d="M276.252 339.708H282.365V284.582H276.252V339.708Z" fill="#EBEBEB"/>
<path d="M183.978 287.189H171.753V339.708H183.978V287.189Z" fill="#EBEBEB"/>
<path d="M199.121 294.101H186.896V339.708H199.121V294.101Z" fill="#EBEBEB"/>
<path d="M227.206 294.101H214.981V339.708H227.206V294.101Z" fill="#EBEBEB"/>
<path d="M209.683 284.582H203.571V339.708H209.683V284.582Z" fill="#EBEBEB"/>
<path d="M386.832 349.635H171.753V412.308H386.832V349.635Z" fill="#E0E0E0"/>
<path d="M307.434 359.774H295.209V412.293H307.434V359.774Z" fill="#EBEBEB"/>
<path d="M374.505 358.45L362.458 360.527L371.379 412.282L383.427 410.206L374.505 358.45Z" fill="#EBEBEB"/>
<path d="M263.49 366.702H251.265V412.309H263.49V366.702Z" fill="#EBEBEB"/>
<path d="M291.574 366.702H279.349V412.309H291.574V366.702Z" fill="#EBEBEB"/>
<path d="M362.463 366.702H350.238V412.309H362.463V366.702Z" fill="#EBEBEB"/>
<path d="M323.497 365.121L311.563 367.773L321.458 412.294L333.392 409.642L323.497 365.121Z" fill="#EBEBEB"/>
<path d="M274.052 357.166H267.939V412.293H274.052V357.166Z" fill="#EBEBEB"/>
<path d="M346.717 357.166H340.605V412.293H346.717V357.166Z" fill="#EBEBEB"/>
<path d="M233.939 358.463L221.892 360.54L230.813 412.295L242.861 410.218L233.939 358.463Z" fill="#EBEBEB"/>
<path d="M221.892 366.702H209.667V412.309H221.892V366.702Z" fill="#EBEBEB"/>
<path d="M182.932 365.121L170.999 367.773L180.893 412.294L192.827 409.642L182.932 365.121Z" fill="#EBEBEB"/>
<path d="M206.162 357.166H200.05V412.293H206.162V357.166Z" fill="#EBEBEB"/>
<path d="M123.652 533.972H163.587L163.587 193.774H123.652L123.652 533.972Z" fill="#FFE594"/>
<path d="M530.467 525.088H496.547L514.379 379.79C514.807 376.754 516.298 373.969 518.588 371.93C520.877 369.891 523.816 368.731 526.881 368.657H674.82L653.125 525.023L530.467 525.088Z" fill="#FFC000"/>
<path d="M638.047 525.088H671.967L689.816 379.79C690.034 378.393 689.942 376.966 689.547 375.608C689.152 374.251 688.464 372.997 687.531 371.935C686.598 370.873 685.443 370.029 684.148 369.462C682.853 368.896 681.449 368.621 680.036 368.657H668.381C665.322 368.75 662.394 369.917 660.108 371.952C657.822 373.988 656.326 376.762 655.879 379.79L638.047 525.088Z" fill="#FFEDB4"/>
<path d="M625.561 524.86L631.706 454.607C631.836 453.083 632.485 451.65 633.544 450.546C634.603 449.442 636.008 448.736 637.526 448.543L640.052 448.217C642.091 447.962 643.981 447.013 645.403 445.528C646.825 444.044 647.692 442.116 647.86 440.067L648.984 427.256C649.095 426.014 648.946 424.762 648.547 423.581C648.148 422.399 647.507 421.314 646.665 420.394C645.823 419.474 644.799 418.739 643.658 418.237C642.516 417.734 641.283 417.475 640.036 417.476H696.727C697.974 417.475 699.208 417.734 700.349 418.237C701.49 418.739 702.514 419.474 703.356 420.394C704.198 421.314 704.839 422.399 705.238 423.581C705.638 424.762 705.787 426.014 705.676 427.256L704.551 440.067C704.384 442.116 703.516 444.044 702.094 445.528C700.672 447.013 698.783 447.962 696.743 448.217L694.217 448.543C692.701 448.738 691.297 449.446 690.238 450.549C689.18 451.652 688.53 453.084 688.398 454.607L682.253 524.86C682.033 527.329 680.897 529.626 679.07 531.3C677.242 532.974 674.854 533.904 672.375 533.906H615.684C618.162 533.904 620.55 532.974 622.378 531.3C624.206 529.626 625.342 527.329 625.561 524.86V524.86Z" fill="#FFEDB4"/>
<path d="M469.538 437.084C469.088 431.752 466.653 426.782 462.714 423.159C458.774 419.537 453.618 417.526 448.266 417.524H497.623C502.96 417.546 508.096 419.567 512.018 423.187C515.941 426.807 518.365 431.766 518.813 437.084L523.703 492.765H474.412L469.538 437.084Z" fill="#FFEDB4"/>
<path d="M469.023 437.194L469.023 437.192C468.584 431.984 466.206 427.131 462.359 423.593C458.512 420.055 453.476 418.091 448.25 418.09C448.25 418.09 448.25 418.09 448.25 418.09H426.343C425.175 418.091 424.02 418.333 422.951 418.801C421.881 419.269 420.919 419.952 420.126 420.809C419.332 421.666 418.724 422.678 418.34 423.78C417.956 424.882 417.804 426.052 417.892 427.215C417.892 427.216 417.893 427.217 417.893 427.218L419.001 440.024L419.001 440.025C419.165 441.96 419.988 443.78 421.333 445.181C422.678 446.581 424.463 447.478 426.389 447.721L426.39 447.722L428.917 448.048L428.918 448.048C430.546 448.26 432.052 449.022 433.189 450.206C434.326 451.391 435.025 452.928 435.17 454.563L435.17 454.564L441.315 524.816C441.524 527.16 442.602 529.342 444.338 530.932C446.074 532.521 448.342 533.404 450.695 533.407H615.683C618.037 533.404 620.305 532.521 622.04 530.932C623.776 529.342 624.854 527.161 625.063 524.817L469.023 437.194ZM469.023 437.194L473.913 492.874L473.953 493.331H474.411H591.967H592.425L592.465 492.874L597.355 437.194L597.355 437.191C597.789 431.996 600.155 427.152 603.987 423.616C607.817 420.079 612.835 418.108 618.048 418.09L639.971 418.09C641.148 418.089 642.313 418.334 643.391 418.809C644.469 419.283 645.436 419.977 646.231 420.846C647.026 421.715 647.631 422.739 648.008 423.855C648.385 424.971 648.526 426.152 648.421 427.325L648.421 427.326L647.296 440.138L647.296 440.141C647.138 442.075 646.319 443.896 644.977 445.297C643.634 446.698 641.85 447.595 639.925 447.835L639.923 447.836L637.397 448.162M469.023 437.194L637.397 448.162M631.143 454.678C631.143 454.678 631.143 454.679 631.143 454.679L625.063 524.816L631.143 454.678ZM631.143 454.678C631.283 453.04 631.98 451.5 633.118 450.314C634.256 449.128 635.766 448.369 637.396 448.162M631.143 454.678L637.396 448.162M637.396 448.162L637.397 448.162M637.396 448.162L637.397 448.162" fill="#FFC000" stroke="#121A27"/>
<path d="M166.521 175.195C166.521 175.195 164.711 163.28 173.399 155.635C182.087 147.991 181.321 143.459 178.827 142.872C176.333 142.286 174.068 149.914 170.253 152.017C170.253 152.017 170.123 141.128 174.002 137.135C177.882 133.141 179.919 122.791 176.219 122.612C172.519 122.432 172.16 128.74 171.329 133.223C170.498 137.705 166.439 143.997 166.439 143.997C166.439 143.997 165.64 134.217 163.179 130.256C160.718 126.295 167.352 117.086 164.809 113.092C162.266 109.099 157.653 116.711 158.028 125.301C158.403 133.891 164.141 143.052 162.804 152.017C162.804 152.017 160.278 145.709 158.012 145.138C155.746 144.568 153.448 140.411 151.932 138.863C150.416 137.314 148.493 142.661 151.932 147.616C155.371 152.571 164.141 165.855 162.804 176.581L166.521 175.195Z" fill="#E6E6E6"/>
<path d="M171.704 169.767L174.557 187.616C174.762 188.911 174.683 190.236 174.327 191.499C173.971 192.762 173.345 193.932 172.493 194.93C171.641 195.928 170.583 196.729 169.391 197.278C168.2 197.828 166.904 198.112 165.592 198.113H162.56C161.248 198.112 159.952 197.828 158.76 197.278C157.569 196.729 156.511 195.928 155.659 194.93C154.807 193.932 154.181 192.762 153.825 191.499C153.468 190.236 153.39 188.911 153.595 187.616L156.48 169.767H171.704Z" fill="#E6E6E6"/>
<path d="M342.381 194.625H351.232V156.564H342.381V194.625Z" fill="#EBEBEB"/>
<path d="M299.578 196.252H308.429V158.191H299.578V196.252Z" fill="#EBEBEB"/>
<path d="M244.523 193.112L253.246 194.616L259.711 157.108L250.988 155.605L244.523 193.112Z" fill="#EBEBEB"/>
<path d="M331.412 194.608H340.263V161.568H331.412V194.608Z" fill="#EBEBEB"/>
<path d="M311.069 194.608H319.92V161.568H311.069V194.608Z" fill="#EBEBEB"/>
<path d="M259.692 194.608H268.542V161.568H259.692V194.608Z" fill="#EBEBEB"/>
<path d="M280.801 194.319L289.441 196.239L296.609 163.986L287.969 162.066L280.801 194.319Z" fill="#EBEBEB"/>
<path d="M323.751 194.625H328.184V154.673H323.751V194.625Z" fill="#EBEBEB"/>
<path d="M271.085 194.625H275.519V154.673H271.085V194.625Z" fill="#EBEBEB"/>
<path d="M239.528 164.404H196.382V194.184H239.528V164.404Z" fill="#EBEBEB"/>
<path d="M387.5 176.597H351.363V198.83H387.5V176.597Z" fill="#EBEBEB"/>
<path d="M379.057 157.053H360.98V179.286H379.057V157.053Z" fill="#EBEBEB"/>
<path d="M681.03 129.259H638.047V308.363H681.03V129.259Z" fill="#E0E0E0"/>
<path d="M515.667 308.853H676.417V129.275L515.667 129.275V308.853Z" fill="#E0E0E0"/>
<path d="M510.483 308.853H677.265V129.275L510.483 129.275V308.853Z" fill="#FFC000"/>
<path d="M517.623 300.588H670.419V134.98L517.623 134.98V300.588Z" fill="white"/>
<path d="M517.607 300.588H520.443V134.98H517.607V300.588Z" fill="#E0E0E0"/>
<path d="M519.986 254.085V258.551H670.827V254.085H519.986Z" fill="#E0E0E0"/>
<path d="M517.607 254.068L672.799 254.068V246.57L517.607 246.57V254.068Z" fill="#FFC000"/>
<path d="M407.5 607.273C582.044 607.273 723.541 599.012 723.541 588.821C723.541 578.631 582.044 570.37 407.5 570.37C232.955 570.37 91.4592 578.631 91.4592 588.821C91.4592 599.012 232.955 607.273 407.5 607.273Z" fill="#F5F5F5"/>
<path d="M168.397 473.597C168.397 473.597 157.607 464.599 148.364 473.597C139.122 482.594 137.313 538.324 137.313 538.324" stroke="#407BFF" stroke-width="0.94" stroke-miterlimit="10"/>
<path d="M136.547 549.082C136.547 549.082 142.92 483.686 118.959 456.172" stroke="#407BFF" stroke-width="0.94" stroke-miterlimit="10"/>
<path d="M138.829 542.187C138.829 542.187 133.939 467.728 151.869 451.216" stroke="#407BFF" stroke-width="0.94" stroke-miterlimit="10"/>
<path d="M136.547 542.187C136.547 542.187 136.139 492.993 122.79 485.349C109.44 477.704 102.643 502.643 102.643 502.643" stroke="#407BFF" stroke-width="0.94" stroke-miterlimit="10"/>
<path d="M141.828 542.187C141.828 542.187 139.644 504.419 149.978 490.923C160.312 477.427 171.168 496.71 171.168 496.71" stroke="#407BFF" stroke-width="0.94" stroke-miterlimit="10"/>
<path d="M138.226 547.256C138.226 547.256 144.909 458.91 133.841 443.947" stroke="#407BFF" stroke-width="0.94" stroke-miterlimit="10"/>
<path d="M111.363 492.504C111.363 492.504 118.014 494.966 116.042 500.752C114.069 506.539 93.0096 516.074 93.0096 516.074C93.0096 516.074 84.1913 508.006 92.2924 494.884C100.394 481.763 111.184 488.364 111.363 492.504Z" fill="#407BFF"/>
<path opacity="0.2" d="M111.363 492.504C111.363 492.504 118.014 494.966 116.042 500.752C114.069 506.539 93.0096 516.074 93.0096 516.074C93.0096 516.074 84.1913 508.006 92.2924 494.884C100.394 481.763 111.184 488.364 111.363 492.504Z" fill="black"/>
<path d="M140.296 481.486C140.296 481.486 133.205 481.193 132.798 487.289C132.39 493.385 148.12 510.304 148.12 510.304C148.12 510.304 159.367 506.229 156.955 490.989C154.542 475.748 142.056 477.721 140.296 481.486Z" fill="#407BFF"/>
<path opacity="0.2" d="M140.296 481.486C140.296 481.486 133.205 481.193 132.798 487.289C132.39 493.385 148.12 510.304 148.12 510.304C148.12 510.304 159.367 506.229 156.955 490.989C154.542 475.748 142.056 477.721 140.296 481.486Z" fill="black"/>
<path d="M146.294 452.244C146.294 452.244 141.567 451.739 141.942 448.87C142.317 446.001 160.312 438.585 170.924 450.5C170.924 450.5 164.127 462.171 154.314 462.334C144.501 462.497 146.294 452.244 146.294 452.244Z" fill="#407BFF"/>
<path opacity="0.2" d="M146.294 452.244C146.294 452.244 141.567 451.739 141.942 448.87C142.317 446.001 160.312 438.585 170.924 450.5C170.924 450.5 164.127 462.171 154.314 462.334C144.501 462.497 146.294 452.244 146.294 452.244Z" fill="black"/>
<path d="M137.492 445.251C137.492 445.251 141.763 447.321 142.969 444.68C144.175 442.04 132.814 426.245 117.476 430.793C117.476 430.793 117.069 444.289 125.316 449.619C133.564 454.949 137.492 445.251 137.492 445.251Z" fill="#407BFF"/>
<path opacity="0.2" d="M137.492 445.251C137.492 445.251 141.763 447.321 142.969 444.68C144.175 442.04 132.814 426.245 117.476 430.793C117.476 430.793 117.069 444.289 125.316 449.619C133.564 454.949 137.492 445.251 137.492 445.251Z" fill="black"/>
<path d="M159.856 490.191C159.856 490.191 156.596 487.55 160.117 486.262C163.638 484.975 180.899 485.349 181.079 502.448C181.079 502.448 160.964 505.79 158.487 499.27C156.009 492.75 159.856 490.191 159.856 490.191Z" fill="#407BFF"/>
<path opacity="0.2" d="M159.856 490.191C159.856 490.191 156.596 487.55 160.117 486.262C163.638 484.975 180.899 485.349 181.079 502.448C181.079 502.448 160.964 505.79 158.487 499.27C156.009 492.75 159.856 490.191 159.856 490.191Z" fill="black"/>
<path d="M118.78 451.82C118.78 451.82 122.04 449.179 118.519 447.908C114.998 446.637 97.7366 446.979 97.5573 464.078C97.5573 464.078 117.672 467.435 120.149 460.915C122.627 454.395 118.78 451.82 118.78 451.82Z" fill="#407BFF"/>
<path opacity="0.2" d="M118.78 451.82C118.78 451.82 122.04 449.179 118.519 447.908C114.998 446.637 97.7366 446.979 97.5573 464.078C97.5573 464.078 117.672 467.435 120.149 460.915C122.627 454.395 118.78 451.82 118.78 451.82Z" fill="black"/>
<path d="M129.473 465.593C129.473 465.593 129.766 462.333 127.174 463.654C124.583 464.974 115.601 474.624 124.925 483.833C124.925 483.833 137.492 474.526 135.227 469.685C132.961 464.844 129.473 465.593 129.473 465.593Z" fill="#407BFF"/>
<path opacity="0.2" d="M129.473 465.593C129.473 465.593 129.766 462.333 127.174 463.654C124.583 464.974 115.601 474.624 124.925 483.833C124.925 483.833 137.492 474.526 135.227 469.685C132.961 464.844 129.473 465.593 129.473 465.593Z" fill="black"/>
<path d="M162.79 470.158C162.79 470.158 160.834 467.599 163.703 467.289C166.572 466.979 179.351 470.386 176.368 483.165C176.368 483.165 160.785 481.992 160.068 476.645C159.351 471.299 162.79 470.158 162.79 470.158Z" fill="#407BFF"/>
<path opacity="0.2" d="M162.79 470.158C162.79 470.158 160.834 467.599 163.703 467.289C166.572 466.979 179.351 470.386 176.368 483.165C176.368 483.165 160.785 481.992 160.068 476.645C159.351 471.299 162.79 470.158 162.79 470.158Z" fill="black"/>
<path d="M112.521 589.604H162.904L169.603 540.606H105.821L112.521 589.604Z" fill="#263238"/>
<path opacity="0.2" d="M112.521 589.604H162.904L169.603 540.606H105.821L112.521 589.604Z" fill="white"/>
<path d="M175.928 536.628V541.29C175.928 542.786 175.333 544.22 174.276 545.278C173.218 546.336 171.784 546.93 170.288 546.93H104.517C103.022 546.93 101.587 546.336 100.529 545.278C99.4717 544.22 98.8775 542.786 98.8775 541.29V536.628H175.928Z" fill="#263238"/>
<path opacity="0.7" d="M424.255 160H377.426C375.532 159.998 373.656 160.369 371.906 161.092C370.156 161.816 368.566 162.877 367.226 164.215C365.886 165.553 364.824 167.142 364.098 168.892C363.373 170.641 363 172.516 363 174.409V215.159C363 217.053 363.373 218.928 364.098 220.677C364.824 222.427 365.886 224.016 367.226 225.354C368.566 226.692 370.156 227.753 371.906 228.476C373.656 229.2 375.532 229.571 377.426 229.569H391.101L387.841 242.446L400.881 229.569H424.337C428.158 229.569 431.824 228.051 434.526 225.348C437.228 222.646 438.746 218.981 438.746 215.159V174.409C438.746 172.51 438.371 170.63 437.642 168.876C436.912 167.123 435.844 165.531 434.497 164.192C433.15 162.853 431.552 161.793 429.795 161.074C428.037 160.354 426.154 159.989 424.255 160Z" fill="#FFE594"/>
<path d="M417.595 209.58C426.672 200.503 426.672 185.786 417.595 176.709C408.517 167.631 393.8 167.631 384.723 176.709C375.646 185.786 375.646 200.503 384.723 209.58C393.8 218.658 408.517 218.658 417.595 209.58Z" fill="#121A27"/>
<path d="M398.733 203.522C398.421 203.523 398.113 203.455 397.831 203.322C397.549 203.19 397.301 202.996 397.103 202.756L387.975 192.014C387.632 191.579 387.472 191.029 387.528 190.478C387.584 189.927 387.852 189.42 388.274 189.063C388.697 188.705 389.242 188.526 389.794 188.563C390.346 188.6 390.863 188.85 391.235 189.26L398.733 198.078L411.088 183.506C411.27 183.292 411.492 183.116 411.742 182.987C411.992 182.859 412.265 182.782 412.545 182.759C412.825 182.736 413.107 182.769 413.374 182.855C413.642 182.941 413.889 183.079 414.103 183.261C414.317 183.443 414.494 183.666 414.622 183.916C414.75 184.166 414.828 184.438 414.85 184.718C414.873 184.998 414.84 185.28 414.754 185.547C414.668 185.815 414.53 186.063 414.348 186.277L400.346 202.756C400.152 202.996 399.906 203.19 399.626 203.322C399.347 203.455 399.042 203.523 398.733 203.522V203.522Z" fill="white"/>
<path d="M180.72 322.055C180.72 322.055 209.115 318.485 252.114 330.205C252.114 330.205 259.025 253.367 258.21 242.821C257.395 232.275 191.82 235.355 191.82 235.355C191.82 235.355 190.19 266.114 185.92 284.663C181.649 303.212 178.536 318.502 180.72 322.055Z" fill="#407BFF"/>
<path opacity="0.2" d="M180.72 322.055C180.72 322.055 209.115 318.485 252.114 330.205C252.114 330.205 259.025 253.367 258.21 242.821C257.395 232.275 191.82 235.355 191.82 235.355C191.82 235.355 190.19 266.114 185.92 284.663C181.649 303.212 178.536 318.502 180.72 322.055Z" fill="black"/>
<path d="M272.815 576.449L261.242 579.726L258.487 561.714L257.004 552.081L268.577 548.805L270.549 561.714L272.815 576.449Z" fill="#E4897B"/>
<path d="M206.279 577.395L194.347 578.976L194.233 561.714L194.151 550.989L206.099 549.424L206.181 561.714L206.279 577.395Z" fill="#E4897B"/>
<path opacity="0.2" d="M206.099 549.424L206.181 561.714H194.233L194.151 550.989L206.099 549.424Z" fill="black"/>
<path opacity="0.2" d="M270.549 561.714H258.487L257.004 552.081L268.577 548.805L270.549 561.714Z" fill="black"/>
<path d="M324.16 249.129L335.57 245.723L333.467 258.844C333.467 258.844 323.035 261.257 322.057 255.829L324.16 249.129Z" fill="#E4897B"/>
<path d="M347.143 248.771L341.52 259.447L333.581 258.844L335.684 245.723L347.143 248.771Z" fill="#E4897B"/>
<path d="M308.333 252.487L327.192 248.249L328.92 257.425L311.788 261.598L308.333 252.487Z" fill="#E4897B"/>
<path d="M251.234 244.206L252.342 245.526C254.722 248.314 260.492 255.046 266.507 260.848C271.397 265.575 276.287 269.699 279.547 270.531C288.789 272.91 322.383 263.016 322.383 263.016L318.944 249.389C318.944 249.389 287.648 253.546 285.219 253.546C283.377 253.546 264.339 225.966 259.726 223.701L251.234 244.206Z" fill="#407BFF"/>
<path opacity="0.2" d="M252.342 245.526C254.722 248.314 260.492 255.046 266.507 260.848C265.301 251.297 261.796 242.527 257.183 236.985C256.753 236.45 256.261 235.969 255.716 235.551L252.342 245.526Z" fill="black"/>
<path d="M272.668 574.64L259.531 574.281C259.291 574.282 259.059 574.361 258.868 574.505C258.677 574.648 258.538 574.85 258.471 575.08L255.7 585.659C255.634 585.912 255.626 586.177 255.676 586.434C255.726 586.691 255.833 586.933 255.99 587.143C256.146 587.353 256.348 587.524 256.58 587.646C256.812 587.767 257.068 587.834 257.33 587.843C262.073 587.843 268.919 587.843 274.885 587.957C281.862 588.136 286.295 587.794 294.445 587.957C299.335 588.087 300.965 583.148 298.879 582.643C289.539 580.345 283.426 580.801 275.472 575.585C274.64 575.022 273.671 574.695 272.668 574.64Z" fill="#263238"/>
<path d="M273.63 576.09C273.629 576.034 273.644 575.978 273.673 575.929C273.702 575.88 273.743 575.84 273.793 575.813C274.347 575.536 279.27 573.222 280.704 574.086C280.841 574.162 280.954 574.273 281.035 574.408C281.115 574.542 281.158 574.695 281.161 574.852C281.179 575.11 281.135 575.369 281.033 575.607C280.931 575.845 280.773 576.056 280.574 576.221C279.205 577.346 275.782 576.775 273.858 576.335C273.801 576.32 273.749 576.29 273.708 576.246C273.668 576.203 273.641 576.149 273.63 576.09V576.09ZM274.82 575.96C277.461 576.465 279.449 576.416 280.215 575.781C280.346 575.67 280.448 575.529 280.514 575.37C280.579 575.211 280.605 575.039 280.59 574.868C280.589 574.808 280.572 574.749 280.54 574.697C280.509 574.646 280.464 574.603 280.411 574.575H280.313C279.4 574.183 276.743 575.112 274.804 575.96H274.82Z" fill="#407BFF"/>
<path d="M273.728 576.286C273.69 576.254 273.661 576.214 273.641 576.169C273.621 576.124 273.612 576.075 273.614 576.025C273.614 575.895 274.07 572.668 275.651 571.461C275.877 571.278 276.139 571.143 276.419 571.068C276.7 570.992 276.994 570.976 277.281 571.021C278.064 571.119 278.276 571.527 278.324 571.836C278.487 573.206 275.521 575.716 274.038 576.319C273.969 576.344 273.894 576.344 273.826 576.319L273.728 576.286ZM277.167 571.576C276.746 571.533 276.326 571.656 275.994 571.918C275.087 572.938 274.517 574.213 274.364 575.569C275.879 574.721 277.901 572.733 277.803 571.918C277.789 571.854 277.757 571.796 277.711 571.749C277.664 571.703 277.606 571.671 277.542 571.657C277.424 571.604 277.296 571.576 277.167 571.576V571.576Z" fill="#407BFF"/>
<path d="M205.806 574.64L192.652 574.281C192.413 574.278 192.181 574.355 191.991 574.5C191.802 574.644 191.667 574.849 191.609 575.08L188.87 585.659C188.804 585.912 188.796 586.177 188.846 586.434C188.896 586.691 189.003 586.933 189.16 587.143C189.316 587.353 189.518 587.525 189.75 587.646C189.982 587.767 190.239 587.834 190.5 587.843C195.243 587.843 202.106 587.843 208.055 587.957C215.032 588.136 219.465 587.794 227.615 587.957C232.505 588.087 234.135 583.149 232.049 582.643C222.709 580.345 216.613 580.801 208.658 575.585C207.813 575.014 206.826 574.686 205.806 574.64V574.64Z" fill="#263238"/>
<path d="M206.8 576.09C206.792 576.033 206.804 575.974 206.834 575.924C206.863 575.874 206.909 575.835 206.963 575.813C207.517 575.536 212.44 573.222 213.874 574.086C214.009 574.163 214.12 574.275 214.197 574.409C214.275 574.544 214.315 574.697 214.314 574.852C214.332 575.11 214.289 575.369 214.187 575.607C214.084 575.845 213.927 576.056 213.728 576.221C212.375 577.346 208.935 576.775 207.012 576.335C206.956 576.322 206.905 576.291 206.867 576.247C206.829 576.203 206.805 576.148 206.8 576.09V576.09ZM207.974 575.96C210.614 576.465 212.603 576.416 213.369 575.781C213.5 575.67 213.602 575.529 213.667 575.37C213.732 575.211 213.759 575.039 213.744 574.868C213.75 574.808 213.738 574.748 213.708 574.696C213.679 574.643 213.635 574.601 213.581 574.575C213.563 574.567 213.543 574.563 213.524 574.563C213.504 574.563 213.485 574.567 213.467 574.575C212.538 574.183 209.864 575.112 207.925 575.96H207.974Z" fill="#407BFF"/>
<path d="M206.8 576.286C206.765 576.253 206.737 576.213 206.72 576.167C206.703 576.122 206.697 576.074 206.702 576.025C206.702 575.895 207.159 572.668 208.74 571.461C208.964 571.276 209.226 571.141 209.507 571.065C209.788 570.989 210.082 570.974 210.37 571.021C211.136 571.119 211.364 571.527 211.397 571.836C211.576 573.206 208.593 575.716 207.126 576.319C207.057 576.342 206.983 576.342 206.914 576.319L206.8 576.286ZM210.256 571.576C209.835 571.533 209.414 571.656 209.082 571.918C208.142 572.926 207.538 574.202 207.354 575.569C208.87 574.721 210.908 572.733 210.794 571.918C210.794 571.918 210.794 571.738 210.549 571.657L210.256 571.576Z" fill="#407BFF"/>
<path d="M181.666 315.046C175.341 342.462 186.197 558.03 186.197 558.03H207.159L216.124 378.371L249.18 558.03L271.593 556.4C256.89 417.28 243.948 334.15 243.948 334.15V323.652L181.666 315.046Z" fill="#263238"/>
<path opacity="0.4" d="M271.544 556.401L249.131 558.031L223.1 416.612L216.075 378.389L207.11 558.031H186.197C186.197 558.031 175.341 342.463 181.666 315.063L243.981 323.653V334.15C243.981 334.15 256.89 417.28 271.544 556.401Z" fill="white"/>
<path d="M192.961 213.53C193.604 226.631 193.271 239.761 191.967 252.813C191.087 261.924 189.881 270.547 188.593 278.338C185.577 296.578 182.073 310.254 181.665 315.013L243.98 323.62C266.703 260.05 258.145 223.098 258.145 223.098C253.484 221.178 248.71 219.545 243.85 218.208C242.823 217.931 241.78 217.67 240.704 217.425C231.953 215.695 223.109 214.476 214.217 213.774C212.587 213.611 210.81 213.513 209.147 213.432C200.622 213.073 192.961 213.53 192.961 213.53Z" fill="#263238"/>
<path d="M226.36 184.973C225.904 193.693 224.975 210.058 217.721 214.199C217.721 214.199 222.236 222.805 232 223.685C239.384 224.337 238.895 217.051 238.895 217.051C234.624 213.791 235.635 208.461 238.895 202.381L226.36 184.973Z" fill="#E4897B"/>
<path opacity="0.2" d="M231.429 192.079L238.846 202.381C238.07 203.79 237.416 205.262 236.89 206.782C233.451 205.413 229.539 200.262 230.093 196.529C230.26 194.976 230.713 193.467 231.429 192.079V192.079Z" fill="black"/>
<path d="M258.096 167.417C259.514 171.948 258.732 181.239 252.407 178.224C246.083 175.208 255.7 159.642 258.096 167.417Z" fill="#263238"/>
<path d="M225.496 173.53C224.795 185.168 223.866 191.932 228.935 198.517C236.645 208.412 251.576 204.728 255.733 193.497C259.482 183.407 260.003 166.097 249.213 160.229C246.826 158.934 244.15 158.264 241.435 158.283C238.72 158.302 236.054 159.009 233.685 160.337C231.317 161.665 229.324 163.572 227.892 165.879C226.46 168.186 225.636 170.818 225.496 173.53V173.53Z" fill="#E4897B"/>
<path d="M233.646 167.206V154.166C233.646 154.166 219.824 153.139 220.443 160.229C212.782 164.027 216.401 175.926 226.686 181.778C232.326 177.263 231.674 166.391 231.674 166.391C232.316 166.697 232.975 166.969 233.646 167.206V167.206Z" fill="#263238"/>
<path d="M219.84 182.56C220.111 183.98 220.661 185.332 221.458 186.538C222.256 187.744 223.285 188.78 224.486 189.585C227.746 191.72 230.549 189.096 230.68 185.428C230.777 182.168 229.213 177.018 225.48 176.366C224.66 176.238 223.821 176.315 223.038 176.591C222.255 176.867 221.553 177.332 220.994 177.946C220.436 178.56 220.038 179.302 219.836 180.107C219.635 180.913 219.636 181.755 219.84 182.56V182.56Z" fill="#E4897B"/>
<path d="M242.66 178.729C242.546 179.658 242.953 180.49 243.573 180.555C244.192 180.62 244.779 179.919 244.893 178.925C245.007 177.93 244.6 177.164 243.98 177.099C243.361 177.034 242.774 177.784 242.66 178.729Z" fill="#263238"/>
<path d="M253.32 179.919C253.206 180.848 253.614 181.68 254.233 181.745C254.853 181.81 255.439 181.109 255.553 180.115C255.668 179.12 255.26 178.354 254.641 178.289C254.021 178.224 253.434 178.974 253.32 179.919Z" fill="#263238"/>
<path d="M249.881 180C250.695 182.913 251.919 185.696 253.516 188.265C252.813 188.627 252.043 188.837 251.253 188.882C250.464 188.927 249.675 188.805 248.936 188.525L249.881 180Z" fill="#DE5753"/>
<path d="M243.442 191.558C243.845 191.66 244.253 191.737 244.665 191.786C244.738 191.791 244.81 191.769 244.867 191.724C244.924 191.678 244.963 191.614 244.975 191.542C244.979 191.505 244.976 191.468 244.967 191.433C244.957 191.398 244.94 191.364 244.917 191.336C244.894 191.307 244.866 191.283 244.834 191.265C244.802 191.247 244.767 191.236 244.73 191.232C243.557 191.128 242.426 190.747 241.428 190.121C240.431 189.495 239.596 188.641 238.993 187.63C238.958 187.565 238.899 187.516 238.829 187.495C238.758 187.474 238.683 187.481 238.618 187.516C238.553 187.55 238.504 187.609 238.483 187.679C238.462 187.75 238.469 187.826 238.504 187.89C239.029 188.809 239.74 189.609 240.59 190.24C241.44 190.872 242.411 191.32 243.442 191.558V191.558Z" fill="#263238"/>
<path d="M239.791 174.931C239.89 174.95 239.992 174.945 240.088 174.917C240.184 174.888 240.273 174.837 240.346 174.768C240.818 174.251 241.404 173.851 242.057 173.599C242.711 173.347 243.414 173.251 244.111 173.318C244.256 173.346 244.406 173.315 244.528 173.233C244.65 173.15 244.735 173.022 244.763 172.878C244.791 172.733 244.76 172.583 244.678 172.46C244.595 172.338 244.468 172.254 244.323 172.226C243.44 172.121 242.546 172.227 241.712 172.536C240.879 172.845 240.131 173.348 239.531 174.002C239.427 174.106 239.369 174.247 239.369 174.394C239.369 174.54 239.427 174.681 239.531 174.785C239.609 174.847 239.697 174.896 239.791 174.931V174.931Z" fill="#263238"/>
<path d="M258.357 176.774C258.464 176.798 258.576 176.798 258.683 176.774C258.814 176.71 258.916 176.598 258.968 176.462C259.019 176.326 259.016 176.175 258.96 176.04C258.687 175.203 258.218 174.444 257.591 173.825C256.964 173.207 256.199 172.748 255.358 172.487C255.286 172.47 255.212 172.468 255.139 172.48C255.066 172.492 254.997 172.519 254.935 172.558C254.872 172.598 254.819 172.649 254.777 172.71C254.735 172.77 254.705 172.838 254.69 172.911C254.67 172.98 254.665 173.053 254.674 173.125C254.683 173.196 254.707 173.265 254.743 173.328C254.78 173.39 254.828 173.445 254.886 173.488C254.944 173.531 255.01 173.562 255.081 173.579C255.749 173.78 256.357 174.145 256.849 174.64C257.342 175.135 257.703 175.745 257.901 176.415C257.938 176.51 258 176.594 258.08 176.657C258.16 176.72 258.256 176.76 258.357 176.774V176.774Z" fill="#263238"/>
<path d="M227.501 172.03C227.501 172.03 235.651 169.064 239.384 164.337C239.384 164.337 246.784 166.276 248.3 169.227C248.995 168.636 249.445 167.808 249.562 166.904C249.68 166 249.456 165.085 248.936 164.337C248.936 164.337 254.478 165.51 255.57 169.227C256.474 168.802 257.216 168.096 257.686 167.215C258.156 166.334 258.329 165.324 258.178 164.337C258.178 164.337 260.639 165.266 261.438 169.227C261.438 169.227 267.55 156.496 247.355 152.927C248.883 152.406 250.484 152.131 252.098 152.112C252.098 152.112 237.998 146.439 226.833 151.639C215.667 156.839 217.672 166.814 227.501 172.03Z" fill="#263238"/>
<path d="M176.857 326L196.417 328.608C196.417 328.608 204.486 272.226 208.039 254.019V215.16L197.819 212.471L189.93 215.16C187.757 222.978 186.086 230.927 184.926 238.958C183.964 245.054 183.1 251.574 182.334 258.176C181.274 267.173 180.394 276.334 179.644 284.908C178.471 298.747 177.688 310.988 177.265 318.47C176.987 323.213 176.857 326 176.857 326Z" fill="#407BFF"/>
<path d="M208.023 254.036C208.023 254.036 206.393 226.603 197.786 212.454C197.786 212.454 198.014 208.396 199.726 207.76C201.437 207.124 208.023 211.02 208.023 211.02C208.023 211.02 212.114 208.216 213.01 209.504C213.907 210.792 216.091 219.496 208.023 254.036Z" fill="#407BFF"/>
<path opacity="0.7" d="M208.023 254.036C208.023 254.036 206.393 226.603 197.786 212.454C197.786 212.454 198.014 208.396 199.726 207.76C201.437 207.124 208.023 211.02 208.023 211.02C208.023 211.02 212.114 208.216 213.01 209.504C213.907 210.792 216.091 219.496 208.023 254.036Z" fill="white"/>
<path d="M252.44 333.563L250.207 335.193C250.207 335.193 253.467 317.019 252.13 271.053C252.13 268.836 251.984 266.701 251.902 264.663C250.272 225.771 244.209 218.697 243.752 218.273L249.392 220.197L259.612 223.718C262.742 256.888 252.44 333.563 252.44 333.563Z" fill="#407BFF"/>
<path d="M251.609 257.947C251.609 257.947 257.249 231.297 255.57 222.087C253.891 212.878 247.876 216.985 247.876 216.985C247.876 216.985 242.35 212.519 240.704 217.442C240.704 217.458 248.3 222.804 251.609 257.947Z" fill="#407BFF"/>
<path opacity="0.7" d="M251.609 257.947C251.609 257.947 257.249 231.297 255.57 222.087C253.891 212.878 247.876 216.985 247.876 216.985C247.876 216.985 242.35 212.519 240.704 217.442C240.704 217.458 248.3 222.804 251.609 257.947Z" fill="white"/>
<path opacity="0.2" d="M182.35 258.159C190.696 253.481 191.804 241.272 191.804 241.272C191.299 241.077 188.202 240.017 184.942 238.941C183.98 245.038 183.1 251.558 182.35 258.159Z" fill="black"/>
<path opacity="0.2" d="M223.1 416.612L216.075 378.388L217.428 358.16C217.428 358.16 227.11 393.238 223.1 416.612Z" fill="black"/>
<path opacity="0.2" d="M177.265 318.453C182.513 318.094 187.045 317.752 187.045 317.752L188.039 296.415C186.403 295.391 184.439 295.03 182.546 295.405C181.256 291.996 180.279 288.477 179.628 284.891C178.471 298.73 177.688 310.987 177.265 318.453Z" fill="black"/>
<path d="M175.472 284.875L185.692 301.289L177.607 305.935L168.006 291.15L175.472 284.875Z" fill="#E4897B"/>
<path d="M190.337 214.948C183.442 215.698 154.216 255.829 152.847 267.923C151.478 280.018 170.011 300.898 170.011 300.898L182.35 293.645C182.35 293.645 169.832 274.394 169.18 269.195C168.528 263.995 192.13 243.049 192.13 243.049C193.898 238.206 194.872 233.109 195.015 227.956C195.39 219.056 190.337 214.948 190.337 214.948Z" fill="#407BFF"/>
<path d="M188.055 296.416C188.055 296.416 177.542 298.681 173.304 305.283C173.304 305.283 177.705 319.056 180.834 320.556C183.964 322.055 191.788 322.055 191.788 322.055C191.788 322.055 192.293 306.733 188.055 296.416Z" fill="#407BFF"/>
</svg>
