<svg xmlns="http://www.w3.org/2000/svg" xmlns:xlink="http://www.w3.org/1999/xlink" viewBox="0 0 1838.97 772.34">
  <defs>
    <style>
      .cls-1 {
        fill: none;
      }

      .cls-2 {
        isolation: isolate;
      }

      .cls-3, .cls-9 {
        fill: #3c3c3b;
      }

      .cls-4 {
        fill: #ff6c0e;
      }

      .cls-5 {
        opacity: 0.6;
        mix-blend-mode: multiply;
      }

      .cls-6 {
        clip-path: url(#clip-path);
      }

      .cls-7 {
        clip-path: url(#clip-path-2);
      }

      .cls-8 {
        fill: url(#linear-gradient);
      }

      .cls-9 {
        fill-rule: evenodd;
      }
    </style>
    <clipPath id="clip-path">
      <rect class="cls-1" x="331.15" y="92.76" width="215.66" height="331.64"/>
    </clipPath>
    <clipPath id="clip-path-2">
      <path class="cls-1" d="M374.57,92.76A333.63,333.63,0,0,1,546.81,155a187.51,187.51,0,0,0-9.2,58.91V424.4C535.92,323,453,241.11,351.24,241.11a190.37,190.37,0,0,0-20.09,1.09c9.64-41.17,28.31-95.57,43.42-149.44"/>
    </clipPath>
    <linearGradient id="linear-gradient" x1="634.98" y1="686.95" x2="638.72" y2="686.95" gradientTransform="matrix(35.92, 22.95, -22.95, 35.92, -6668.07, -39024.45)" gradientUnits="userSpaceOnUse">
      <stop offset="0" stop-color="#fff"/>
      <stop offset="1" stop-color="#1d1d1b"/>
    </linearGradient>
  </defs>
  <g class="cls-2">
    <g id="Layer_1" data-name="Layer 1">
      <g>
        <path class="cls-3" d="M787.25,186.73q4.07-22.09,13.47-36a54.85,54.85,0,0,1,24.76-20.37q15.36-6.42,37.61-6.43t37.61,6.43a54.65,54.65,0,0,1,24.74,20.37q9.42,14,13.49,36T943,240.16q0,31.34-4.08,53.43t-13.49,36a51.79,51.79,0,0,1-24.74,19.9q-15.36,5.94-37.61,6t-37.61-6a52,52,0,0,1-24.76-19.9q-9.4-14-13.47-36t-4.08-53.43q0-31.33,4.08-53.43m68.32-73.18h-42V69.68h42ZM844,277.61q.63,14.88,2.67,23.66t6,12.22c2.6,2.3,6.11,3.45,10.5,3.45s7.89-1.15,10.5-3.45,4.59-6.37,5.95-12.22,2.25-13.74,2.66-23.66.63-22.41.63-37.45-.21-27.52-.63-37.46-1.31-17.8-2.66-23.66-3.35-9.91-5.95-12.21-6.11-3.46-10.5-3.46-7.9,1.16-10.5,3.46-4.6,6.37-6,12.21-2.25,13.75-2.67,23.66-.62,22.42-.62,37.46.2,27.53.62,37.45M912.6,113.55h-42V69.68h42Z"/>
        <polygon class="cls-3" points="1022.92 175.91 957.42 175.91 957.42 128.28 1090.92 128.28 1090.92 170.27 1019.47 304.4 1090.92 304.4 1090.92 352.03 952.72 352.03 952.72 310.04 1022.92 175.91"/>
        <path class="cls-3" d="M1191.82,128.28q25.38,0,39.49,9.24a57.4,57.4,0,0,1,21.16,24.76q7,15.51,8.61,35.72t1.57,42.16q0,21.93-1.57,42.15T1252.47,318a57.31,57.31,0,0,1-21.16,24.75q-14.08,9.25-39.49,9.25h-84.61V128.28ZM1177.1,310q8.46,0,13.48-2.35c3.33-1.57,5.89-4.85,7.68-9.87s2.92-12.11,3.43-21.31.79-21.31.79-36.35-.26-27.16-.79-36.36-1.67-16.29-3.43-21.3-4.35-8.31-7.68-9.88-7.84-2.34-13.48-2.34h-11.6V310Z"/>
        <path class="cls-3" d="M1339.43,352h-58.28V128.28h58.28Zm-8.15-239.43h-42V68.73h42Z"/>
        <polygon class="cls-3" points="1419.34 128.28 1419.34 304.4 1491.1 304.4 1491.1 352.03 1361.06 352.03 1361.06 128.28 1419.34 128.28"/>
        <polygon class="cls-3" points="1634.95 128.28 1634.95 175.91 1560.69 175.91 1560.69 214.15 1630.25 214.15 1630.25 259.9 1560.69 259.9 1560.69 304.4 1637.78 304.4 1637.78 352.03 1502.39 352.03 1502.39 128.28 1634.95 128.28"/>
        <polygon class="cls-3" points="1711.42 128.28 1711.42 214.15 1712.05 214.15 1755.29 128.28 1817.34 128.28 1760.93 226.05 1824.24 352.03 1757.81 352.03 1723.64 274 1711.42 292.81 1711.42 352.03 1653.13 352.03 1653.13 128.28 1711.42 128.28"/>
        <polygon class="cls-3" points="840.66 446.12 840.66 528.93 875.12 528.93 875.12 446.12 931.37 446.12 931.37 671.81 875.12 671.81 875.12 578.87 840.66 578.87 840.66 671.81 784.41 671.81 784.41 446.12 840.66 446.12"/>
        <path class="cls-3" d="M951.92,505.06q3.92-22.28,13-36.34a53.46,53.46,0,0,1,23.89-20.55q14.79-6.48,36.28-6.48t36.28,6.48a53.62,53.62,0,0,1,23.89,20.55q9.08,14.05,13,36.34t3.93,53.9q0,31.62-3.93,53.89t-13,36.35a50.57,50.57,0,0,1-23.89,20.07q-14.82,6-36.28,6t-36.28-6a50.43,50.43,0,0,1-23.89-20.07q-9.07-14.07-13-36.35T948,559q0-31.61,3.93-53.9m54.72,91.68q.6,15,2.57,23.86c1.3,5.9,3.23,10,5.75,12.32s5.89,3.49,10.13,3.49,7.6-1.17,10.13-3.49,4.42-6.42,5.74-12.32,2.16-13.86,2.57-23.86.6-22.61.6-37.78-.2-27.76-.6-37.77-1.26-18-2.57-23.87-3.23-10-5.74-12.33-5.91-3.48-10.13-3.48-7.62,1.18-10.13,3.48-4.45,6.43-5.75,12.33-2.17,13.87-2.57,23.87-.6,22.6-.6,37.77.2,27.77.6,37.78"/>
        <polygon class="cls-3" points="1175.05 446.12 1175.05 623.76 1244.29 623.76 1244.29 671.81 1118.81 671.81 1118.81 446.12 1175.05 446.12"/>
        <path class="cls-3" d="M1336.8,446.12q24.51,0,38.1,9.32a57.19,57.19,0,0,1,20.41,25q6.81,15.64,8.32,36t1.49,42.51q0,22.13-1.49,42.51t-8.32,36a57.22,57.22,0,0,1-20.41,25q-13.61,9.32-38.1,9.32h-81.63V446.12Zm-14.2,183.33c5.43,0,9.77-.8,13-2.37s5.68-4.9,7.4-10,2.83-12.22,3.32-21.49.76-21.5.76-36.67-.25-27.39-.76-36.67-1.61-16.43-3.32-21.49-4.18-8.38-7.4-10-7.57-2.37-13-2.37h-11.19v141Z"/>
        <path class="cls-3" d="M1479.21,671.8H1423V446.12h56.23Zm-7.86-241.48h-40.51V386.06h40.51Z"/>
        <polygon class="cls-3" points="1562.96 446.12 1599.24 585.19 1599.85 585.19 1599.85 446.12 1652.46 446.12 1652.46 671.81 1590.77 671.81 1553.29 532.41 1552.68 532.41 1552.68 671.81 1500.07 671.81 1500.07 446.12 1562.96 446.12"/>
        <path class="cls-3" d="M1820.56,549.17V671.8h-38.1l-1.21-19.91h-.6a31.26,31.26,0,0,1-7.72,12,33.3,33.3,0,0,1-11.17,7.1,58.58,58.58,0,0,1-13.31,3.33,108.91,108.91,0,0,1-14.36.95q-21.48,0-33.87-7.43t-18.74-22.28q-6.36-14.87-8-36.66T1671.81,559A353.82,353.82,0,0,1,1675,508.7q3.18-21.81,12.09-36.67a58.2,58.2,0,0,1,24.65-22.59q15.72-7.76,40.51-7.75a87.8,87.8,0,0,1,27.37,4.11,53.27,53.27,0,0,1,21.62,13.27q9.07,9.18,14.21,23.55t5.14,34.93h-54.42q0-18-3-26.23c-2-6.53-6.36-9.8-13-9.8-4.65,0-8.32,1.16-11,3.47s-4.75,6.43-6,12.33-2.17,13.86-2.57,23.87-.61,22.6-.61,37.77.2,27.76.61,37.77,1.26,18,2.57,23.87,3.22,10,5.74,12.32,5.89,3.48,10.14,3.48a16.48,16.48,0,0,0,8-1.89q3.48-1.9,5.9-7.12t3.77-14.54A168.4,168.4,0,0,0,1768,589h-20V549.17Z"/>
        <path class="cls-4" d="M696,11.88c-8.27,97.85-9.17,343.27-9.17,402.09,0,3,.07,12,.07,13.67,0,185.07-150.56,335.63-335.62,335.63S15.6,612.71,15.6,427.64,166.17,92,351.24,92a333.7,333.7,0,0,1,195.6,63.06C572.54,76.94,646.35,33.2,696,11.88M164.78,427.64c0,102.82,83.63,186.46,186.46,186.46s186.45-83.64,186.45-186.46l-.08-3.16c-1.69-101.36-84.62-183.3-186.37-183.3-102.83,0-186.46,83.65-186.46,186.46"/>
        <g class="cls-5">
          <g class="cls-6">
            <g class="cls-7">
              <polygon class="cls-8" points="180.68 328.27 484.3 522.26 697.28 188.89 393.66 -5.08 180.68 328.27"/>
            </g>
          </g>
        </g>
        <path class="cls-9" d="M65,423.17c0-158,129.27-286.08,288.7-286.08,159.59,0,288.86,128.12,288.86,286.08S513.28,709.39,353.69,709.39C194.26,709.39,65,581.26,65,423.17m29.18-3.67a264,264,0,0,1,81.67-191.7l-2.61,67.41s26.25-40.51,76.29-70.42V178.25a257.56,257.56,0,0,1,211.42.89l.49,43.2s45.16,23.88,74.17,67.16V230.73A265,265,0,0,1,614.18,419.5c0,145.62-116.39,263.64-260,263.64-143.44,0-260-118-260-263.64"/>
        <path class="cls-3" d="M164.08,427.62c0,102.82,84,186.47,187.31,186.47S538.7,530.44,538.7,427.62l-.08-3.14c-1.71-101.37-85-183.31-187.23-183.31-103.28,0-187.31,83.64-187.31,186.45"/>
      </g>
    </g>
  </g>
</svg>
