<?xml version="1.0" encoding="utf-8"?>
<!-- Generator: Adobe Illustrator 22.1.0, SVG Export Plug-In . SVG Version: 6.00 Build 0)  -->
<svg version="1.1" id="katman_1" xmlns="http://www.w3.org/2000/svg" xmlns:xlink="http://www.w3.org/1999/xlink" x="0px" y="0px"
	 viewBox="0 0 229.4 242.2" style="enable-background:new 0 0 229.4 242.2;" xml:space="preserve">
<style type="text/css">
	.st0{fill:#FFED00;}
	.st1{fill:#EF7B1B;}
	.st2{fill:#213B8B;}
	.st3{fill:#E30613;}
	.st4{fill:#22264C;}
	.st5{clip-path:url(#SVGID_2_);fill:url(#SVGID_3_);}
	.st6{fill:#206C30;}
	.st7{fill:#FEEB17;}
	.st8{clip-path:url(#SVGID_5_);fill:url(#SVGID_6_);}
</style>
<g>
	<polygon class="st0" points="0,127.5 23.4,119.5 1.7,107.6 26.1,103.8 6.9,88.3 31.6,88.8 15.4,70.2 39.6,75 26.8,53.8 49.9,62.7 
		41,39.7 62.1,52.4 57.3,28.2 75.9,44.4 75.5,19.7 91,39 94.8,14.6 106.7,36.2 114.7,12.8 122.7,36.2 134.6,14.6 138.4,39 
		153.9,19.7 153.5,44.4 172.1,28.2 167.3,52.4 188.4,39.7 179.5,62.7 202.6,53.8 189.8,75 214,70.2 197.8,88.8 222.5,88.3 
		203.3,103.8 227.7,107.6 206,119.5 229.4,127.5 206,135.6 227.7,147.5 203.3,151.3 222.5,166.8 197.8,166.3 214,184.9 189.8,180.1 
		202.6,201.3 179.5,192.4 188.4,215.4 167.3,202.7 172.1,226.9 153.5,210.7 153.9,235.4 138.4,216.1 134.6,240.5 122.7,218.9 
		114.7,242.2 106.7,218.9 94.8,240.5 91,216.1 75.5,235.4 75.9,210.7 57.3,226.9 62.1,202.7 41,215.4 49.9,192.4 26.8,201.3 
		39.6,180.1 15.4,184.9 31.6,166.3 6.9,166.8 26.1,151.3 1.7,147.5 23.4,135.6 	"/>
	<polygon class="st0" points="0,127.5 23.4,119.5 1.7,107.6 26.1,103.8 6.9,88.3 31.6,88.8 15.4,70.2 39.6,75 26.8,53.8 49.9,62.7 
		41,39.7 62.1,52.4 57.3,28.2 75.9,44.4 75.5,19.7 91,39 94.8,14.6 106.7,36.2 114.7,12.8 122.7,36.2 134.6,14.6 138.4,39 
		153.9,19.7 153.5,44.4 172.1,28.2 167.3,52.4 188.4,39.7 179.5,62.7 202.6,53.8 189.8,75 214,70.2 197.8,88.8 222.5,88.3 
		203.3,103.8 227.7,107.6 206,119.5 229.4,127.5 206,135.6 227.7,147.5 203.3,151.3 222.5,166.8 197.8,166.3 214,184.9 189.8,180.1 
		202.6,201.3 179.5,192.4 188.4,215.4 167.3,202.7 172.1,226.9 153.5,210.7 153.9,235.4 138.4,216.1 134.6,240.5 122.7,218.9 
		114.7,242.2 106.7,218.9 94.8,240.5 91,216.1 75.5,235.4 75.9,210.7 57.3,226.9 62.1,202.7 41,215.4 49.9,192.4 26.8,201.3 
		39.6,180.1 15.4,184.9 31.6,166.3 6.9,166.8 26.1,151.3 1.7,147.5 23.4,135.6 	"/>
	<path class="st1" d="M23.6,127.5c0-50.3,40.8-91.1,91.1-91.1c50.3,0,91.1,40.8,91.1,91.1c0,50.3-40.8,91.1-91.1,91.1
		C64.4,218.6,23.6,177.9,23.6,127.5"/>
	<polygon class="st0" points="54.7,129.7 67.6,120 69.2,111.5 40,111.5 38.2,121.6 49.2,121.6 35.5,131.9 34,140.1 64.3,140.1 
		66.2,129.7 	"/>
	<path class="st0" d="M89.9,128.2c-0.2,0.9-0.5,1.6-1,2.2c-0.5,0.6-1.1,1.1-1.8,1.5c-0.7,0.4-1.5,0.6-2.3,0.8
		c-0.9,0.1-1.8,0.2-2.6,0.2c-1.5,0-2-0.3-2.2-0.5c-0.2-0.2-0.4-0.5-0.3-1.3c0.1-0.6,0.4-1,0.7-1.3c0.4-0.3,1-0.5,1.9-0.6
		c2.1-0.2,3.8-0.4,5.3-0.5C88.4,128.4,89.2,128.3,89.9,128.2 M101.5,113c-1.2-0.9-2.8-1.6-4.9-2c-1.9-0.4-4.3-0.6-7.1-0.6
		c-2.9,0-5.4,0.1-7.5,0.4c-2.1,0.3-4,0.8-5.5,1.5c-1.6,0.8-3,1.8-4,3.1c-1,1.2-1.8,2.8-2.5,4.8l-0.5,1.3h12.9l0.2-0.6
		c0.2-0.5,0.4-0.9,0.7-1.2c0.4-0.3,0.8-0.6,1.2-0.8c0.4-0.2,0.9-0.3,1.5-0.4c0.6-0.1,1.2-0.1,1.7-0.1c1.4,0,2.4,0.2,3.1,0.5
		c0.4,0.2,0.6,0.5,0.5,0.9c-0.1,0.5-0.3,0.8-0.5,1c-0.2,0.1-0.7,0.3-1.9,0.4l-9.2,0.5c-2.1,0.1-3.9,0.4-5.5,0.8
		c-1.6,0.5-2.9,1.1-4,1.9c-1.1,0.8-2,1.8-2.7,2.9c-0.6,1.1-1.1,2.3-1.4,3.6c-0.3,1.9-0.3,3.5,0.1,4.7c0.4,1.3,1.1,2.4,2.2,3.3
		c1,0.8,2.3,1.4,3.9,1.7c1.5,0.3,3.1,0.5,5,0.5c3,0,5.5-0.3,7.6-0.9c1.4-0.4,2.7-1,3.8-1.7c0,0.3,0,0.5,0.1,0.8l0.1,0.8h13.4
		l-0.6-1.3c-0.2-0.4-0.3-0.8-0.3-1.4c-0.1-0.5,0-1.3,0.1-2.2l2.4-12.9c0.4-2.1,0.4-3.9,0.1-5.4C103.5,115.3,102.7,114,101.5,113"/>
	<path class="st0" d="M130.4,111.5h-5.8c0.1-0.3,0.2-0.6,0.4-0.7c0.1-0.1,0.5-0.3,1.6-0.3h4l1.5-8.2l-1-0.1
		c-1.1-0.1-2.4-0.2-3.7-0.2c-1.3,0-2.5,0-3.5,0c-1.8,0-3.4,0.1-4.7,0.4c-1.4,0.3-2.5,0.7-3.5,1.3c-1,0.6-1.8,1.4-2.4,2.5
		c-0.6,1-1,2.1-1.2,3.4l-0.4,2h-5l-1.7,9.6h5l-3.5,19h12.8l3.5-19h5.9L130.4,111.5z"/>
	<path class="st0" d="M141.7,121.6c0.5-0.8,1-1.4,1.7-1.8c1-0.6,2.4-0.9,4.2-0.9c1.7,0,2.9,0.3,3.7,1c0.5,0.5,0.8,1,0.9,1.7H141.7z
		 M150.1,130.5c-0.6,0.7-1.4,1.2-2.2,1.5c-0.8,0.3-1.9,0.5-3.2,0.5c-1.1,0-1.9-0.1-2.6-0.4c-0.6-0.3-1.1-0.6-1.5-1
		c-0.3-0.4-0.5-0.7-0.6-1.1c0-0.1-0.1-0.3-0.1-0.4h23.7l0.1-0.8c0.7-3.4,0.7-6.4,0.2-8.7c-0.5-2.4-1.5-4.4-3-5.8
		c-1.5-1.4-3.3-2.5-5.6-3c-2.2-0.6-4.7-0.9-7.4-0.9c-2.7,0-5.3,0.3-7.6,1c-2.3,0.7-4.4,1.6-6.1,2.9c-1.8,1.3-3.3,2.9-4.4,4.8
		c-1.2,1.9-2,4.1-2.4,6.5c-1,5.2,0.1,9.2,3,11.8c2.9,2.5,7.3,3.8,13.2,3.8c2.6,0,4.9-0.2,6.9-0.7c2-0.4,3.8-1.1,5.4-1.9
		c3.2-1.7,5.6-4,7.1-7.1l0.7-1.4h-13.5L150.1,130.5z"/>
	<path class="st0" d="M194.4,111.1c-1.2-0.2-2.5-0.3-3.7-0.3c-2,0-4.1,0.5-6.1,1.5c-1.2,0.6-2.5,1.5-3.7,2.6l0.6-3.3h-12.4
		l-5.2,28.6h12.8l2-10.8c0.2-1.3,0.6-2.4,1.2-3.2c0.6-0.8,1.2-1.5,2-1.9c0.8-0.5,1.6-0.8,2.5-1c1.8-0.4,3.7-0.4,5.1,0
		c0.8,0.2,1.6,0.4,2.6,0.7l1,0.3l2.4-12.9L194.4,111.1z"/>
	<polygon class="st2" points="36.4,132.4 51.9,120.8 51.9,120.7 39.3,120.7 40.8,112.5 68,112.5 66.7,119.5 52,130.6 52,130.7 
		65.1,130.7 63.5,139.1 35.2,139.1 	"/>
	<path class="st2" d="M91.1,127c-1,0.2-2.2,0.4-3.7,0.6c-1.5,0.2-3.3,0.3-5.3,0.5c-1,0.1-1.8,0.3-2.3,0.8c-0.6,0.4-0.9,1-1.1,1.9
		c-0.2,0.9,0,1.7,0.6,2.2c0.5,0.5,1.5,0.8,2.9,0.8c0.9,0,1.8-0.1,2.8-0.2c1-0.1,1.8-0.4,2.6-0.9c0.8-0.4,1.5-1,2.1-1.7
		c0.6-0.7,1-1.7,1.2-2.8L91.1,127z M70.8,120.6c0.7-1.9,1.5-3.4,2.4-4.5c0.9-1.2,2.1-2.1,3.6-2.8c1.5-0.7,3.2-1.2,5.3-1.4
		c2-0.3,4.5-0.4,7.4-0.4c2.7,0,5.1,0.2,7,0.6c1.9,0.4,3.4,1,4.5,1.8c1.1,0.8,1.8,2,2.1,3.3c0.3,1.4,0.3,3-0.1,5l-2.4,12.9
		c-0.2,1-0.2,1.9-0.2,2.5c0.1,0.6,0.2,1.2,0.4,1.6H89.7c-0.1-0.7-0.1-1.6,0.1-2.6c-1.5,1.3-3.2,2.2-5.2,2.8s-4.5,0.9-7.3,0.9
		c-1.8,0-3.4-0.1-4.8-0.4c-1.4-0.3-2.6-0.8-3.5-1.5c-0.9-0.7-1.5-1.6-1.9-2.8c-0.3-1.1-0.4-2.6,0-4.3c0.2-1.2,0.6-2.3,1.2-3.3
		c0.6-1,1.4-1.9,2.4-2.6c1-0.7,2.3-1.3,3.7-1.7c1.5-0.4,3.2-0.7,5.2-0.8l9.2-0.5c1.1-0.1,1.9-0.3,2.4-0.6c0.5-0.3,0.8-0.9,0.9-1.6
		c0.1-0.9-0.2-1.5-1-2c-0.8-0.4-2-0.6-3.6-0.6c-0.6,0-1.2,0-1.8,0.1c-0.6,0.1-1.2,0.2-1.7,0.4c-0.5,0.2-1,0.5-1.5,0.9
		c-0.4,0.4-0.8,0.9-1,1.6H70.8z"/>
	<path class="st2" d="M111.2,120.1h-5l1.4-7.7h5l0.5-2.8c0.2-1.2,0.6-2.2,1.1-3.1c0.5-0.9,1.2-1.6,2-2.1c0.9-0.5,1.9-0.9,3.2-1.2
		c1.3-0.3,2.8-0.4,4.5-0.4c1,0,2.2,0,3.5,0c1.3,0,2.5,0.1,3.6,0.2l-1.2,6.4h-3.2c-1,0-1.7,0.2-2.2,0.5c-0.4,0.3-0.7,0.9-0.8,1.6
		l-0.2,0.8h5.8l-1.4,7.7H122l-3.5,19h-10.8L111.2,120.1z"/>
	<path class="st2" d="M153.1,122.5c0.2-1.5-0.2-2.6-1.2-3.4c-1-0.8-2.4-1.2-4.3-1.2c-1.9,0-3.5,0.4-4.7,1.1
		c-1.2,0.7-2.1,1.9-2.7,3.6H153.1z M162.3,131.1c-1.4,2.9-3.6,5.1-6.7,6.6c-1.6,0.8-3.3,1.4-5.2,1.8c-1.9,0.4-4.2,0.6-6.7,0.6
		c-5.7,0-9.9-1.2-12.6-3.6c-2.7-2.4-3.6-6-2.7-10.9c0.4-2.3,1.2-4.4,2.3-6.1c1.1-1.8,2.5-3.3,4.2-4.5c1.7-1.2,3.6-2.1,5.8-2.8
		c2.2-0.6,4.6-1,7.3-1c2.6,0,5,0.3,7.1,0.8c2.1,0.6,3.9,1.5,5.2,2.8c1.3,1.3,2.3,3.1,2.7,5.3c0.5,2.2,0.4,5-0.2,8.3H139
		c-0.1,0.5-0.1,1,0.1,1.6c0.1,0.6,0.4,1.1,0.8,1.6c0.4,0.5,1,0.9,1.8,1.2c0.8,0.3,1.8,0.5,2.9,0.5c1.4,0,2.6-0.2,3.5-0.5
		c0.9-0.4,1.8-1,2.5-1.8H162.3z"/>
	<path class="st2" d="M169.9,112.5h10.5l-1,5.1h0.1c1.8-2.1,3.7-3.6,5.5-4.5c1.9-0.9,3.7-1.4,5.7-1.4c1.2,0,2.3,0.1,3.5,0.3l-2,10.9
		c-0.9-0.3-1.8-0.5-2.6-0.7c-0.8-0.2-1.7-0.3-2.6-0.3c-1,0-1.9,0.1-2.9,0.3c-1,0.2-1.9,0.6-2.8,1.1c-0.9,0.5-1.6,1.3-2.3,2.2
		c-0.6,0.9-1.1,2.1-1.3,3.5l-1.8,10H165L169.9,112.5z"/>
	<path class="st2" d="M133.9,159.3h-0.4c-0.1,0-0.2,0-0.2,0c0,0,0-0.1,0-0.1l1.2-5.9h0.6c1.2,0,1.9-0.5,2.1-1.4
		c0.1-0.5,0-0.8-0.2-1.1c-0.4-0.4-1-0.5-1.5-0.5h-0.3l0.3-1.3c0.2-0.8-0.1-1.3-0.3-1.6c-0.2-0.3-0.6-0.6-1.4-0.6
		c-1.2,0-2.1,0.7-2.4,1.9l-0.3,1.5h-0.1c-1.1,0-1.7,0.5-1.9,1.4c-0.1,0.5,0,0.9,0.2,1.1c0.2,0.3,0.7,0.5,1.2,0.5l-1.3,6.1
		c-0.2,1.1-0.1,1.9,0.4,2.4c0.5,0.6,1.4,0.9,2.7,0.9c2.3,0,2.9-1.1,3-1.8c0.1-0.6,0-1-0.2-1.2C134.9,159.5,134.5,159.3,133.9,159.3"
		/>
	<path class="st2" d="M140.5,149.9c1.1,0,2.2-0.9,2.4-2c0.1-0.6,0-1.2-0.3-1.6c-0.3-0.4-0.8-0.6-1.4-0.6c-1.1,0-2.2,0.9-2.5,2
		c-0.1,0.6,0,1.2,0.4,1.6C139.5,149.7,140,149.9,140.5,149.9"/>
	<path class="st2" d="M141.8,150.5c-0.3-0.4-0.8-0.6-1.5-0.6c-1.3,0-2.1,0.7-2.4,1.9l-1.8,8.6c-0.2,0.7-0.1,1.2,0.2,1.6
		c0.3,0.4,0.8,0.6,1.5,0.6c1.3,0,2.1-0.7,2.4-1.9l1.8-8.6C142.2,151.5,142.1,150.9,141.8,150.5"/>
	<path class="st2" d="M151.5,157.3c-1,0-1.5,0.6-1.9,1.1c-0.5,0.5-0.9,1-1.8,1c-0.6,0-1-0.2-1.2-0.5c-0.3-0.4-0.4-1.2-0.2-2.2
		c0.6-3,2.4-3.3,3-3.3c0.9,0,1.1,0.3,1.3,0.8c0.2,0.4,0.5,1,1.5,1c1.1,0,2-0.7,2.2-1.7c0.1-0.7,0-1.4-0.5-2c-0.8-1-2.2-1.5-3.9-1.5
		c-3.9,0-6.8,2.5-7.6,6.5c-0.4,1.9-0.1,3.5,0.7,4.6c0.9,1.1,2.3,1.6,4.2,1.6c3.5,0,5.6-2.1,5.9-3.6c0.1-0.4,0-0.9-0.3-1.2
		C152.5,157.5,152,157.3,151.5,157.3"/>
	<path class="st2" d="M161.3,157.5l-0.1,0.3c-0.2,0.9-1.3,1.9-2.8,1.9c-0.4,0-0.8-0.1-0.9-0.3c-0.1-0.1-0.1-0.2-0.1-0.4
		c0.1-0.6,0.5-1,2-1.2l1.2-0.2C160.8,157.6,161,157.5,161.3,157.5 M161.3,150c-3.3,0-5.7,1.7-6,3.2c-0.1,0.4,0,0.9,0.3,1.2
		c0.3,0.4,0.7,0.6,1.3,0.6c0.7,0,1.2-0.4,1.6-0.8c0.6-0.5,1.2-0.9,2.3-0.9c0.6,0,1,0.1,1.2,0.3c0,0.1,0.1,0.2,0.1,0.4
		c-0.1,0.5-0.4,0.7-1.2,0.8l-1.9,0.2c-2.2,0.3-4.9,0.9-5.5,4c-0.2,1,0,1.9,0.5,2.6c0.6,0.8,1.6,1.2,2.8,1.2c1.6,0,2.9-0.4,4.2-1.3
		c0.1,0.3,0.2,0.5,0.3,0.7c0.3,0.4,0.9,0.6,1.6,0.6c1,0,1.9-0.7,2.1-1.6c0.1-0.3,0-0.5,0-0.7c0-0.3-0.1-0.7,0.1-1.4l1.1-5.2
		c0.2-1,0-1.8-0.5-2.4C165,150.5,163.5,150,161.3,150"/>
	<path class="st2" d="M176.6,152.1c0.1-0.5,0-1-0.3-1.4c-0.3-0.4-0.9-0.7-1.6-0.7c-0.9,0-1.7,0.4-2.5,1.2c-0.1-0.3-0.2-0.5-0.3-0.6
		c-0.3-0.4-0.8-0.6-1.3-0.6c-1.1,0-2,0.7-2.2,1.8l-1.8,8.7c-0.2,0.7-0.1,1.2,0.2,1.6c0.3,0.4,0.8,0.6,1.5,0.6c1.3,0,2.1-0.7,2.4-1.9
		l0.8-3.6c0.6-2.7,1.4-3.1,2.2-3.1h0.6C175.2,154,176.3,153.5,176.6,152.1"/>
	<path class="st2" d="M182.6,153.1c0.5,0,0.9,0.2,1.2,0.5c0.2,0.3,0.4,0.6,0.4,1H180C180.5,153.8,181.3,153.1,182.6,153.1 M183,150
		c-3.8,0-6.8,2.5-7.7,6.5c-0.4,1.8-0.1,3.4,0.8,4.5c0.9,1.2,2.4,1.7,4.4,1.7c2.1,0,5.5-1,6-3.2c0.1-0.4,0-0.9-0.3-1.3
		c-0.3-0.3-0.7-0.5-1.2-0.5c-0.7,0-1.2,0.3-1.6,0.7c-0.6,0.4-1.1,0.9-2.3,0.9c-0.7,0-1.2-0.2-1.6-0.6c-0.3-0.3-0.4-0.8-0.3-1.3h6.7
		c1.3,0,1.9-0.5,2.1-1.7c0.3-1.5,0-2.9-0.8-3.9C186.5,150.9,185.3,150,183,150"/>
	<path class="st2" d="M196.9,150.8c-0.4-0.4-1-0.5-1.5-0.5h-0.3l0.3-1.3c0.2-0.8-0.1-1.3-0.3-1.6c-0.2-0.3-0.6-0.6-1.4-0.6
		c-1.2,0-2.1,0.7-2.4,1.9l-0.3,1.5h-0.1c-1.1,0-1.7,0.5-1.9,1.4c-0.1,0.5,0,0.9,0.2,1.1c0.2,0.3,0.7,0.5,1.2,0.5l-1.3,6.1
		c-0.2,1.1-0.1,1.9,0.4,2.4c0.5,0.6,1.4,0.9,2.7,0.9c2.3,0,2.9-1.1,3-1.8c0.1-0.6,0-1-0.2-1.2c-0.2-0.2-0.5-0.5-1.1-0.5h-0.4
		c-0.1,0-0.2,0-0.2,0c0,0,0-0.1,0-0.1l1.2-5.9h0.6c1.2,0,1.9-0.5,2.1-1.4C197.2,151.4,197.1,151,196.9,150.8"/>
	<path class="st0" d="M131,152.8h-0.5c-0.9,0-1.2-0.3-1-1c0.2-0.7,0.6-1,1.5-1h0.5l0.4-1.9c0.2-1,1-1.6,1.9-1.6
		c0.9,0,1.4,0.5,1.2,1.6l-0.4,1.9h0.9c0.9,0,1.3,0.3,1.2,1c-0.1,0.7-0.7,1-1.6,1h-0.9l-1.3,6.2c-0.1,0.5,0.1,0.7,0.6,0.7h0.4
		c0.7,0,1,0.4,0.9,1c-0.2,0.9-1.1,1.4-2.6,1.4c-2.3,0-3-0.9-2.6-2.8L131,152.8z"/>
	<path class="st0" d="M141.2,146.2c0.9,0,1.5,0.7,1.3,1.6c-0.2,0.9-1.1,1.6-2,1.6c-0.9,0-1.5-0.7-1.3-1.6
		C139.4,146.9,140.3,146.2,141.2,146.2 M138.4,152c0.2-0.8,0.7-1.6,1.9-1.6c1.2,0,1.4,0.7,1.2,1.6l-1.8,8.6
		c-0.2,0.8-0.7,1.6-1.9,1.6c-1.2,0-1.4-0.7-1.2-1.6L138.4,152z"/>
	<path class="st0" d="M149.8,150.5c2.6,0,4.2,1.5,3.9,2.9c-0.2,0.9-1,1.3-1.8,1.3c-1.5,0-0.5-1.8-2.8-1.8c-1.2,0-2.8,0.8-3.4,3.7
		c-0.4,1.9,0.2,3.2,1.9,3.2c2.2,0,2.1-2,3.8-2c0.8,0,1.2,0.6,1.1,1.2c-0.3,1.4-2.2,3.2-5.5,3.2c-3.9,0-5.2-2.4-4.5-5.6
		C143.4,153,146,150.5,149.8,150.5"/>
	<path class="st0" d="M161.9,156.7c-0.4,0.3-1.1,0.4-1.5,0.5l-1.2,0.2c-1.3,0.2-2.1,0.6-2.4,1.5c-0.2,0.7,0.4,1.3,1.5,1.3
		c1.7,0,3-1.1,3.2-2.3L161.9,156.7z M164.6,158.9c-0.3,1.3,0,1.6-0.1,2.1c-0.1,0.7-0.9,1.2-1.7,1.2c-1.3,0-1.6-0.9-1.5-1.8
		c-1.5,1.3-3,1.8-4.7,1.8c-1.8,0-3.3-1.2-2.8-3.2c0.6-2.6,2.7-3.3,5.1-3.6l1.9-0.2c0.8-0.1,1.4-0.3,1.6-1.2c0.2-0.9-0.6-1.3-1.7-1.3
		c-2.3,0-2.7,1.7-4,1.7c-0.8,0-1.2-0.6-1.1-1.2c0.3-1.2,2.4-2.8,5.6-2.8c3,0,4.9,1,4.4,3.2L164.6,158.9z"/>
	<path class="st0" d="M168.9,151.9c0.2-0.9,0.9-1.5,1.7-1.5c0.8,0,1.3,0.5,1.1,1.5l-0.2,1.2h0c0.6-1.3,1.6-2.7,3.1-2.7
		c1,0,1.6,0.6,1.4,1.5c-0.3,1.2-1.1,1.6-1.9,1.6h-0.6c-1.3,0-2.1,0.9-2.7,3.5l-0.8,3.6c-0.2,0.8-0.7,1.6-1.9,1.6s-1.4-0.7-1.2-1.6
		L168.9,151.9z"/>
	<path class="st0" d="M184.7,155.1c0.1-1.4-0.7-2.5-2.1-2.5c-1.6,0-2.7,1-3.4,2.5H184.7z M178.8,156.9c-0.4,1.6,0.4,2.8,2.3,2.8
		c2.4,0,2.7-1.5,4-1.5c0.7,0,1.1,0.6,1,1.2c-0.4,1.9-3.6,2.8-5.5,2.8c-4.4,0-5.4-3-4.8-5.7c0.8-3.6,3.5-6.1,7.2-6.1
		c3.6,0,5.1,2.5,4.6,5.1c-0.2,1.1-0.6,1.3-1.6,1.3H178.8z"/>
	<path class="st0" d="M191,152.8h-0.5c-0.9,0-1.2-0.3-1-1c0.1-0.7,0.6-1,1.5-1h0.5l0.4-1.9c0.2-1,1-1.6,1.9-1.6
		c0.9,0,1.4,0.5,1.2,1.6l-0.4,1.9h0.9c0.9,0,1.3,0.3,1.2,1c-0.2,0.7-0.7,1-1.6,1h-0.9l-1.3,6.2c-0.1,0.5,0.1,0.7,0.6,0.7h0.4
		c0.7,0,1,0.4,0.9,1c-0.2,0.9-1.1,1.4-2.6,1.4c-2.3,0-3-0.9-2.6-2.8L191,152.8z"/>
	<path class="st2" d="M199.1,107.9c0.1,0,0.3,0,0.4,0c0.1,0,0.3,0,0.4-0.1c0.1,0,0.2-0.1,0.2-0.2c0.1-0.1,0.1-0.2,0.1-0.4
		c0-0.1,0-0.2-0.1-0.3c-0.1-0.1-0.1-0.1-0.2-0.2c-0.1,0-0.2-0.1-0.3-0.1c-0.1,0-0.2,0-0.3,0h-0.9v1.3H199.1z M197.8,106.1h1.6
		c0.5,0,0.8,0.1,1.1,0.3c0.2,0.2,0.4,0.5,0.4,0.9c0,0.4-0.1,0.7-0.3,0.8c-0.2,0.2-0.5,0.3-0.8,0.3l1.2,1.8h-0.6l-1.2-1.8h-0.7v1.8
		h-0.6V106.1z M199.2,111.1c0.4,0,0.8-0.1,1.2-0.2c0.4-0.2,0.7-0.4,0.9-0.6c0.3-0.3,0.5-0.6,0.6-1c0.2-0.4,0.2-0.8,0.2-1.2
		c0-0.4-0.1-0.8-0.2-1.2c-0.2-0.4-0.4-0.7-0.6-1c-0.3-0.3-0.6-0.5-0.9-0.6c-0.4-0.2-0.7-0.2-1.2-0.2c-0.4,0-0.8,0.1-1.2,0.2
		c-0.4,0.2-0.7,0.4-0.9,0.6c-0.3,0.3-0.5,0.6-0.6,1c-0.2,0.4-0.2,0.8-0.2,1.2c0,0.4,0.1,0.8,0.2,1.2c0.2,0.4,0.4,0.7,0.6,1
		c0.3,0.3,0.6,0.5,0.9,0.6C198.5,111.1,198.8,111.1,199.2,111.1 M195.7,108.1c0-0.5,0.1-1,0.3-1.4c0.2-0.4,0.4-0.8,0.8-1.1
		c0.3-0.3,0.7-0.6,1.1-0.8c0.4-0.2,0.9-0.3,1.4-0.3c0.5,0,1,0.1,1.4,0.3c0.4,0.2,0.8,0.4,1.1,0.8c0.3,0.3,0.6,0.7,0.8,1.1
		c0.2,0.4,0.3,0.9,0.3,1.4c0,0.5-0.1,1-0.3,1.4c-0.2,0.4-0.4,0.8-0.8,1.1c-0.3,0.3-0.7,0.6-1.1,0.8c-0.4,0.2-0.9,0.3-1.4,0.3
		c-0.5,0-1-0.1-1.4-0.3c-0.4-0.2-0.8-0.4-1.1-0.8c-0.3-0.3-0.6-0.7-0.8-1.1C195.7,109.1,195.7,108.6,195.7,108.1"/>
	<rect x="27.6" y="100.5" class="st3" width="174.3" height="0.5"/>
	<rect x="24.8" y="142.3" class="st3" width="179.7" height="0.5"/>
	<path class="st4" d="M114.7,36.7c-24.3,0-47.1,9.4-64.2,26.6c-17.2,17.2-26.6,40-26.6,64.2c0,24.3,9.4,47.1,26.6,64.2
		c17.2,17.2,40,26.6,64.2,26.6c24.3,0,47.1-9.4,64.2-26.6c17.2-17.2,26.6-40,26.6-64.2c0-24.3-9.4-47.1-26.6-64.2
		C161.8,46.2,139,36.7,114.7,36.7 M114.7,218.9c-24.4,0-47.3-9.5-64.6-26.7c-17.2-17.2-26.7-40.2-26.7-64.6
		c0-24.4,9.5-47.3,26.7-64.6c17.2-17.2,40.2-26.7,64.6-26.7S162,45.7,179.3,63c17.2,17.2,26.7,40.2,26.7,64.6
		c0,24.4-9.5,47.3-26.7,64.6C162,209.4,139.1,218.9,114.7,218.9"/>
	<g>
		<defs>
			<path id="SVGID_1_" d="M122.7,65.9c19.6-8.2,20.3-20,20.3-20s1-6.9,0-9.4c-1-2.5-1.7-16.1-1.7-16.1
				C103.1,34.9,103.1,74.1,122.7,65.9"/>
		</defs>
		<clipPath id="SVGID_2_">
			<use xlink:href="#SVGID_1_"  style="overflow:visible;"/>
		</clipPath>
		
			<linearGradient id="SVGID_3_" gradientUnits="userSpaceOnUse" x1="-114.2777" y1="-392.6708" x2="-111.9467" y2="-392.6708" gradientTransform="matrix(14.4484 0 0 -14.4484 1760.8752 -5626.2603)">
			<stop  offset="0" style="stop-color:#95C23D"/>
			<stop  offset="1" style="stop-color:#216B2C"/>
		</linearGradient>
		<rect x="103.1" y="20.4" class="st5" width="40.9" height="53.7"/>
	</g>
	<path class="st6" d="M131.1,33.2c0,0-8.5,18.1-11.6,34.1c0,0-2.3,0.5-4.1-0.1c-1.5-0.5-1.2-2.1,1.6-6.9
		C122.3,51.4,119,54.1,131.1,33.2"/>
	<path class="st7" d="M140.8,21c-20,7.8-28.8,22.3-30.4,32.4c-0.8,5.2,0.3,9.6,3,11.7c2.2,1.7,5.3,1.8,9,0.3
		c5.5-2.3,13-6.4,17.2-12.8c2.5-3.9,2.8-6.8,2.8-6.8l0,0c0-0.1,1-6.8,0-9.2C141.6,34.4,141,23.8,140.8,21 M117.7,67.5
		c-2.2,0-3.8-0.8-4.8-1.6c-3-2.3-4.2-7-3.4-12.6c1.6-10.4,10.8-25.5,31.6-33.4l0.6-0.2l0,0.7c0.2,4.7,0.9,14,1.7,15.9
		c1,2.5,0.1,9.2,0,9.7c-0.1,0.8-1.2,12.3-20.6,20.4C120.9,67.2,119.2,67.5,117.7,67.5"/>
	<g>
		<defs>
			<path id="SVGID_4_" d="M79.2,42.4c7,21.4,31.2,26.5,31.2,26.5c10.2,1.3,9.1-29,9.1-29s-0.8-17.7-13.6-24.2
				C93.1,9.3,81.8,0.7,81.8,0.7S72.2,21,79.2,42.4"/>
		</defs>
		<clipPath id="SVGID_5_">
			<use xlink:href="#SVGID_4_"  style="overflow:visible;"/>
		</clipPath>
		
			<linearGradient id="SVGID_6_" gradientUnits="userSpaceOnUse" x1="-116.7782" y1="-378.4916" x2="-114.4472" y2="-378.4916" gradientTransform="matrix(18.4234 0 0 -18.4234 2228.0908 -6937.6104)">
			<stop  offset="0" style="stop-color:#95C23D"/>
			<stop  offset="1" style="stop-color:#216B2C"/>
		</linearGradient>
		<rect x="72.2" y="0.7" class="st8" width="48.5" height="69.5"/>
	</g>
	<path class="st7" d="M110.5,68.5c1.3,0.2,2.4-0.2,3.4-1.1c5.9-5.4,5.2-27.2,5.2-27.4c0-0.2-0.9-17.5-13.4-23.8
		c-11.3-5.7-21.5-13-23.8-14.7c-1.4,3.3-8.5,21.8-2.3,40.8c3.6,10.9,11.8,17.4,18,21C104.2,67.1,110.1,68.4,110.5,68.5 M111,69.5
		c-0.2,0-0.4,0-0.7,0l0,0c-0.1,0-6.2-1.4-13.1-5.3c-6.4-3.7-14.8-10.4-18.4-21.6c-7-21.3,2.5-41.8,2.6-42L81.6,0L82,0.4
		c0.1,0.1,11.4,8.6,24.1,15c5.4,2.7,9.5,7.8,11.9,14.8c1.8,5.2,2,9.6,2,9.8c0,0.9,0.7,22.4-5.5,28.1C113.5,69,112.3,69.5,111,69.5"
		/>
	<path class="st6" d="M110,69.4c0,0,3.2,1.3,5.4-2.2c0,0-27.3-38.1-33.6-66.4C81.8,0.7,80.9,20.6,110,69.4"/>
</g>
</svg>
